<?xml version="1.0" standalone="no"?>
<!DOCTYPE svg PUBLIC "-//W3C//DTD SVG 20010904//EN"
 "http://www.w3.org/TR/2001/REC-SVG-20010904/DTD/svg10.dtd">
<svg version="1.0" xmlns="http://www.w3.org/2000/svg"
 width="260.000000pt" height="260.000000pt" viewBox="0 0 260.000000 260.000000"
 preserveAspectRatio="xMidYMid meet">
<metadata>
Created by potrace 1.14, written by Peter Selinger 2001-2017
</metadata>
<g transform="translate(0.000000,260.000000) scale(0.100000,-0.100000)"
fill="#000000" stroke="none">
<path d="M1085 1998 c-93 -12 -142 -27 -242 -75 -192 -93 -406 -343 -478 -558
-33 -98 -38 -127 -39 -232 -1 -93 -1 -93 -35 -120 -146 -121 -291 -294 -291
-348 0 -16 13 -29 48 -48 44 -24 58 -26 219 -30 191 -5 178 -9 218 65 12 23
28 44 35 46 7 3 10 0 7 -5 -3 -5 -9 -30 -12 -56 -8 -54 -10 -52 81 -37 115 20
105 12 98 88 -7 89 -11 299 -6 345 3 26 10 38 26 43 114 33 254 91 274 113 24
26 24 26 17 3 -6 -21 -5 -22 12 -14 10 6 21 11 25 11 4 1 13 3 20 6 7 2 51 16
98 30 86 27 96 29 160 39 19 3 95 14 169 26 74 11 138 20 144 20 6 0 2 9 -7
19 -18 20 -12 22 29 7 11 -4 29 -11 40 -15 11 -4 47 -6 80 -5 33 2 74 -1 91
-7 42 -13 88 -61 114 -117 59 -129 84 -171 112 -192 26 -19 38 -21 106 -16 42
3 87 5 100 5 l22 1 -25 50 c-14 28 -23 50 -20 50 2 0 27 -13 53 -30 27 -16 52
-30 56 -30 4 0 22 11 39 24 18 13 55 35 82 50 91 47 111 77 85 126 -17 32
-155 101 -250 125 -8 2 -51 13 -95 25 -94 25 -153 38 -215 46 -57 7 -83 11
-91 13 -3 0 -18 29 -34 64 -85 188 -261 379 -415 450 -43 20 -259 59 -309 55
-20 -1 -63 -6 -96 -10z"/>
</g>
</svg>
